<svg width="60" height="60" viewBox="0 0 60 60" fill="none" xmlns="http://www.w3.org/2000/svg">
<rect width="60" height="60" rx="12" fill="#FF9900"/>
<g clip-path="url(#clip0_11873_2927)">
<path opacity="0.5" d="M5 28.9173C5.35534 28.125 5.96603 27.8817 6.79546 27.8982C8.8436 27.9386 10.8935 27.9102 12.9425 27.912C13.8532 27.912 14.4496 28.4592 14.4496 29.2827C14.4496 30.1062 13.8523 30.6534 12.9425 30.6543C10.8935 30.6562 8.8436 30.6277 6.79546 30.6681C5.96603 30.6846 5.35624 30.4395 5 29.649V28.9173Z" fill="white"/>
<path d="M11.0569 22.4238C11.7247 22.4238 12.3917 22.4173 13.0595 22.4256C13.8639 22.4357 14.4407 23.0031 14.4505 23.7752C14.4603 24.5693 13.8782 25.1597 13.0541 25.1652C11.7337 25.1734 10.4132 25.1725 9.09358 25.1652C8.2704 25.1606 7.67489 24.5748 7.67578 23.7917C7.67757 23.0104 8.27487 22.432 9.09894 22.4247C9.75159 22.4183 10.4042 22.4238 11.0569 22.4238Z" fill="white"/>
<path d="M11.0777 33.3994C11.7303 33.3994 12.383 33.3938 13.0356 33.4003C13.8659 33.4085 14.4507 33.9805 14.4498 34.7719C14.4498 35.5633 13.8642 36.1371 13.0329 36.1408C11.7125 36.1472 10.392 36.149 9.07238 36.1408C8.25812 36.1353 7.66261 35.5293 7.676 34.7471C7.6894 33.9842 8.27866 33.4113 9.07595 33.4012C9.74378 33.3929 10.4107 33.3994 11.0785 33.3994H11.0777Z" fill="white"/>
<path d="M19.6342 17.5C28.9214 17.5 38.2085 17.5 47.4965 17.5C47.767 17.5891 48.0385 17.679 48.3411 17.7791C48.2527 17.8792 48.1929 17.9545 48.126 18.0224C43.9868 22.2548 39.8522 26.4908 35.6997 30.7094C35.3747 31.039 34.9595 31.3273 34.5336 31.4898C33.3381 31.9452 32.29 31.6027 31.4007 30.6948C27.275 26.4789 23.1511 22.2621 19.0271 18.0453C18.953 17.9691 18.8843 17.8884 18.7852 17.78C19.0932 17.679 19.3637 17.5891 19.6342 17.5Z" fill="white"/>
<path opacity="0.5" d="M17.1289 20.0725C17.2164 19.7943 17.303 19.5161 17.4155 19.1562C20.7198 22.6193 23.9813 26.0382 27.1633 29.3746C23.992 32.698 20.7243 36.1216 17.4146 39.5892C17.3021 39.2302 17.2155 38.952 17.1289 38.6739C17.1289 32.474 17.1289 26.2733 17.1289 20.0734V20.0725Z" fill="white"/>
<path d="M48.2203 41.0627C47.8399 41.115 47.3703 41.2362 46.8998 41.2371C39.4867 41.2491 32.0745 41.2454 24.6614 41.2454C23.1534 41.2454 21.6445 41.2601 20.1366 41.2362C19.6973 41.2289 19.2598 41.1123 18.8438 41.0489C22.1436 37.5932 25.406 34.1779 28.6978 30.7314C28.8496 30.8829 28.9433 30.9812 29.0425 31.0748C29.688 31.6817 30.2719 32.3849 30.9933 32.8752C32.9244 34.1899 35.3395 33.8621 37.0377 32.1499C37.4796 31.7046 37.9109 31.2492 38.3876 30.7562C41.6687 34.1954 44.9293 37.6143 48.2194 41.0627H48.2203Z" fill="white"/>
<path opacity="0.5" d="M49.6797 39.5718C46.3924 36.1272 43.1291 32.7082 39.9453 29.3719C43.1291 26.0365 46.3915 22.6175 49.6539 19.1995C49.7012 19.2105 49.7476 19.2206 49.7949 19.2316C49.8619 19.6879 49.9851 20.1433 49.9878 20.5995C50.0056 23.4576 49.9967 26.3156 49.9967 29.1736C49.9967 32.1528 49.9958 35.1319 49.9976 38.1111C49.9976 38.5977 49.9342 39.066 49.6789 39.5718H49.6797Z" fill="white"/>
</g>
<defs>
<clipPath id="clip0_11873_2927">
<rect width="45" height="23.75" fill="white" transform="translate(5 17.5)"/>
</clipPath>
</defs>
</svg>
