<svg width="61" height="61" viewBox="0 0 61 61" fill="none" xmlns="http://www.w3.org/2000/svg">
<g filter="url(#filter0_d_11873_2983)">
<path d="M3.26073 35.9001C-0.00878024 32.6306 -0.00878501 27.3297 3.26072 24.0602L23.7943 3.52659C27.0638 0.257089 32.3647 0.257084 35.6342 3.52659L56.1678 24.0602C59.4373 27.3297 59.4373 32.6306 56.1678 35.9001L35.6342 56.4337C32.3647 59.7032 27.0638 59.7032 23.7943 56.4337L3.26073 35.9001Z" fill="#FFF0E6"/>
<path d="M3.96783 24.7673L24.5014 4.2337C27.3804 1.35472 32.0481 1.35472 34.9271 4.2337L55.4607 24.7673C58.3397 27.6462 58.3397 32.314 55.4607 35.193L34.9271 55.7266C32.0481 58.6055 27.3804 58.6055 24.5014 55.7266L3.96783 35.193C1.08885 32.314 1.08885 27.6463 3.96783 24.7673Z" stroke="#FF6600" stroke-width="2"/>
</g>
<path d="M38.5729 23.79C39.2266 23.1362 39.2266 22.0745 38.5729 21.4207C37.9191 20.767 36.8574 20.767 36.2036 21.4207L30.6963 26.9333L25.1838 21.426C24.53 20.7722 23.4683 20.7722 22.8145 21.426C22.1608 22.0797 22.1608 23.1414 22.8145 23.7952L28.3271 29.3025L22.8198 34.815C22.166 35.4688 22.166 36.5305 22.8198 37.1843C23.4735 37.838 24.5352 37.838 25.189 37.1843L30.6963 31.6718L36.2088 37.1791C36.8626 37.8328 37.9243 37.8328 38.5781 37.1791C39.2318 36.5253 39.2318 35.4636 38.5781 34.8098L33.0655 29.3025L38.5729 23.79Z" fill="#FF6600"/>
<defs>
<filter id="filter0_d_11873_2983" x="0.808594" y="1.07446" width="59.8125" height="59.8113" filterUnits="userSpaceOnUse" color-interpolation-filters="sRGB">
<feFlood flood-opacity="0" result="BackgroundImageFix"/>
<feColorMatrix in="SourceAlpha" type="matrix" values="0 0 0 0 0 0 0 0 0 0 0 0 0 0 0 0 0 0 127 0" result="hardAlpha"/>
<feOffset dx="2" dy="2"/>
<feComposite in2="hardAlpha" operator="out"/>
<feColorMatrix type="matrix" values="0 0 0 0 1 0 0 0 0 0.815686 0 0 0 0 0.690196 0 0 0 1 0"/>
<feBlend mode="normal" in2="BackgroundImageFix" result="effect1_dropShadow_11873_2983"/>
<feBlend mode="normal" in="SourceGraphic" in2="effect1_dropShadow_11873_2983" result="shape"/>
</filter>
</defs>
</svg>
