<svg width="60" height="60" viewBox="0 0 60 60" fill="none" xmlns="http://www.w3.org/2000/svg">
<rect width="60" height="60" rx="12" fill="#FAD000"/>
<g clip-path="url(#clip0_11873_2956)">
<path opacity="0.5" d="M45.624 18.5794V43.5626C45.624 45.7372 43.848 47.4999 41.6573 47.4999H16.672C14.9389 47.4999 13.4659 46.3969 12.9258 44.8593C13.1423 44.9514 13.3723 45.0278 13.6166 45.0884C13.7023 45.1097 13.784 45.1443 13.8681 45.1735H40.2969C40.4952 45.1144 40.6951 45.0601 40.8918 44.9971C42.4941 44.4814 43.5355 43.058 43.5387 41.3393C43.5458 37.78 43.5411 34.2198 43.5411 30.6604C43.5411 25.8973 43.5442 21.1342 43.5395 16.3702C43.5395 15.8837 43.4594 15.4223 43.3102 14.9988C44.6761 15.6207 45.624 16.9898 45.624 18.5794Z" fill="white"/>
<path d="M40.298 45.1737H13.8691C13.785 45.1453 13.7033 45.1099 13.6177 45.0887C12.2367 44.7438 11.3 43.9101 10.8162 42.5803C10.7416 42.3756 10.6885 42.1631 10.625 41.9536C10.625 33.2092 10.625 24.4655 10.625 15.721C10.648 15.6761 10.6813 15.6336 10.6924 15.5863C11.1184 13.6866 12.5778 12.5033 14.5283 12.5025C22.9003 12.4994 31.2723 12.4994 39.6444 12.5064C39.9966 12.5064 40.3591 12.5434 40.6985 12.6308C42.4237 13.0764 43.5389 14.5463 43.5413 16.3713C43.5461 21.1344 43.5429 25.8983 43.5429 30.6615C43.5429 34.2208 43.5477 37.7802 43.5405 41.3396C43.5373 43.0582 42.4959 44.4824 40.8937 44.9973C40.697 45.0603 40.4971 45.1154 40.2988 45.1737H40.298ZM30.8996 20.0409C28.8032 20.0409 26.7068 20.0377 24.6104 20.0424C23.841 20.0448 23.2818 20.5896 23.2874 21.3076C23.2929 22.0052 23.8505 22.5508 24.5937 22.5515C28.7865 22.5563 32.9801 22.5578 37.1728 22.5445C37.4219 22.5445 37.6971 22.4531 37.9129 22.3256C38.3896 22.0429 38.5807 21.4706 38.4261 20.9581C38.2571 20.3983 37.7971 20.0448 37.1895 20.0432C35.0931 20.0377 32.9967 20.0409 30.9003 20.0409H30.8996ZM30.9003 27.5808C28.804 27.5808 26.7076 27.5776 24.6112 27.5824C23.8418 27.5839 23.2818 28.1287 23.2874 28.8468C23.2921 29.5443 23.8497 30.0907 24.593 30.0915C28.7857 30.0962 32.9793 30.0978 37.172 30.0844C37.4211 30.0844 37.6963 29.9938 37.9121 29.8663C38.3888 29.5844 38.5807 29.0113 38.4261 28.4996C38.2579 27.9398 37.7971 27.5855 37.1903 27.5839C35.0939 27.5784 32.9975 27.5816 30.9011 27.5816L30.9003 27.5808ZM30.9083 35.1207C28.8381 35.1207 26.7679 35.1191 24.6977 35.1207C23.8577 35.1207 23.2858 35.634 23.2866 36.378C23.2874 37.1181 23.864 37.6322 24.7032 37.633C28.8174 37.6345 32.9309 37.6338 37.0451 37.633C37.1895 37.633 37.3378 37.633 37.4774 37.6031C38.1151 37.4637 38.5435 36.8693 38.4713 36.2379C38.3999 35.6073 37.8685 35.127 37.1982 35.1246C35.1018 35.1176 33.0055 35.1223 30.9091 35.1215L30.9083 35.1207ZM18.2396 18.7851C17.8049 18.7851 17.3694 18.7749 16.9348 18.7875C16.2384 18.808 15.7077 19.3221 15.6942 20.0117C15.6784 20.8754 15.676 21.7391 15.6958 22.6027C15.7109 23.2672 16.2439 23.7915 16.9165 23.8057C17.7867 23.8238 18.6568 23.8238 19.5269 23.8057C20.2003 23.7915 20.7317 23.2696 20.7468 22.6027C20.7666 21.7398 20.7651 20.8754 20.7484 20.0117C20.7349 19.3252 20.1995 18.8087 19.5063 18.7883C19.0851 18.7757 18.6623 18.7859 18.2404 18.7859L18.2396 18.7851ZM18.2237 26.3243C17.8152 26.3243 17.4059 26.3187 16.9974 26.325C16.2296 26.3376 15.7006 26.8502 15.6919 27.606C15.6815 28.4303 15.6807 29.2546 15.6919 30.0789C15.7014 30.8087 16.2344 31.337 16.9721 31.3472C17.8025 31.3582 18.633 31.3582 19.4634 31.3472C20.2059 31.3378 20.7381 30.8174 20.7492 30.086C20.7619 29.2483 20.7627 28.4106 20.7492 27.5737C20.7373 26.8643 20.2043 26.3439 19.4896 26.3258C19.0676 26.3148 18.6457 26.3243 18.2237 26.3235V26.3243ZM18.2134 38.8895C18.6354 38.8895 19.0573 38.8974 19.4793 38.8879C20.1987 38.8706 20.7357 38.3565 20.7492 37.6503C20.7651 36.8 20.7651 35.9489 20.7492 35.0987C20.7365 34.4098 20.2059 33.8815 19.5142 33.8681C18.6576 33.8524 17.8001 33.8532 16.9435 33.8673C16.228 33.8791 15.7038 34.4074 15.6934 35.1215C15.6807 35.9592 15.6807 36.7969 15.6934 37.6338C15.7045 38.3431 16.2352 38.8667 16.9483 38.8871C17.3694 38.8989 17.7922 38.8895 18.2142 38.8895H18.2134Z" fill="white"/>
</g>
<g clip-path="url(#clip1_11873_2956)">
<path d="M55.1114 29.6096L50.5193 26.4373C50.0051 26.0822 49.3184 26.247 48.9896 26.8051C48.8304 27.0762 48.7778 27.398 48.8421 27.7135C48.9064 28.0274 49.0788 28.2954 49.3286 28.4666L50.9693 29.6017H45.9814C45.5475 29.6017 45.1954 29.9838 45.1954 30.4546V30.6243V30.7939C45.1954 31.2648 45.5475 31.6468 45.9814 31.6468H50.9708L49.3301 32.7804C49.0802 32.9532 48.9078 33.2211 48.8435 33.5334C48.7792 33.8473 48.8318 34.1708 48.9911 34.4419C49.1956 34.7891 49.5448 34.9967 49.9247 34.9967C50.1365 34.9967 50.3411 34.9317 50.5193 34.8081L55.1099 31.6357C55.4314 31.4138 55.6227 31.0349 55.6227 30.6211C55.6227 30.2073 55.4314 29.8284 55.1099 29.6065L55.1114 29.6096Z" fill="white"/>
</g>
<defs>
<clipPath id="clip0_11873_2956">
<rect width="35" height="35" fill="white" transform="translate(10.625 12.5)"/>
</clipPath>
<clipPath id="clip1_11873_2956">
<rect width="11.25" height="8.75" fill="white" transform="translate(44.375 26.25)"/>
</clipPath>
</defs>
</svg>
