<svg width="60" height="60" viewBox="0 0 60 60" fill="none" xmlns="http://www.w3.org/2000/svg">
<rect width="60" height="60" rx="12" fill="#6200EE"/>
<g clip-path="url(#clip0_11873_2937)">
<path d="M11.25 42.9958V23.4723C11.5206 22.7497 12.0475 22.4836 12.8086 22.4866C17.549 22.5025 22.2901 22.4942 27.0305 22.4942C34.1922 22.4942 41.3532 22.4942 48.5149 22.4942C49.5057 22.4942 49.9894 22.9711 49.9894 23.9454C49.9894 30.0741 49.9939 36.2021 49.981 42.3308C49.9803 42.7895 49.9143 43.2672 49.7726 43.7024C49.251 45.3091 47.8409 46.2493 46.02 46.2493C35.7569 46.2508 25.4938 46.2493 15.2308 46.2493C15.117 46.2493 15.0033 46.2493 14.8904 46.2447C13.8328 46.1947 12.9451 45.7853 12.2211 45.0088C11.6859 44.4364 11.4312 43.7358 11.25 42.9958ZM20.1652 33.8508C20.1652 34.6485 20.1508 35.4037 20.1697 36.1573C20.1841 36.7366 20.6276 37.2166 21.1856 37.3114C21.767 37.4099 22.3538 37.0915 22.5555 36.5425C22.6229 36.3575 22.6548 36.149 22.6555 35.9519C22.6624 33.7068 22.6608 31.4624 22.6578 29.2173C22.6578 29.0672 22.6419 28.914 22.6063 28.7685C22.4592 28.1604 21.9081 27.779 21.2758 27.8389C20.6693 27.8965 20.1917 28.3696 20.1705 28.9823C20.1478 29.6245 20.1629 30.2682 20.1591 30.9112C20.1584 31.0447 20.1478 31.1781 20.1417 31.3078H19.0538C19.0538 30.5556 19.0614 29.8269 19.0516 29.0991C19.0425 28.3681 18.5239 27.8396 17.8287 27.8305C17.1328 27.8222 16.5673 28.3401 16.5627 29.0611C16.5483 31.4063 16.5521 33.7523 16.5627 36.0982C16.565 36.5721 16.7962 36.9436 17.2192 37.1749C18.0349 37.6192 19.0212 37.0596 19.0485 36.124C19.0697 35.3718 19.0531 34.6189 19.0531 33.8501H20.1659L20.1652 33.8508ZM41.0371 34.8676C41.2023 34.8532 41.3373 34.8403 41.4722 34.8297C43.1984 34.6993 44.5387 33.3603 44.6835 31.6209C44.8268 29.9028 43.7086 28.2999 42.0279 27.9488C41.3479 27.8063 40.6269 27.8427 39.9242 27.8343C39.0273 27.823 38.5414 28.3113 38.5391 29.2037C38.5338 31.4586 38.5338 33.7144 38.5391 35.9693C38.5414 36.7836 39.0546 37.328 39.79 37.325C40.5208 37.3212 41.0234 36.7708 41.0363 35.9549C41.0416 35.616 41.0371 35.2763 41.0371 34.8676ZM28.1987 30.3077C28.4133 30.3077 28.5763 30.3175 28.737 30.3046C28.9113 30.291 29.0925 30.2811 29.2555 30.2243C29.7991 30.0355 30.1447 29.4622 30.0667 28.9156C29.9734 28.2665 29.4829 27.8199 28.7855 27.8108C27.5627 27.7942 26.3399 27.8055 25.1171 27.807C25.0541 27.807 24.9912 27.8146 24.9291 27.8245C24.2688 27.9246 23.7987 28.4667 23.8222 29.1006C23.8465 29.7617 24.3559 30.2675 25.042 30.3031C25.252 30.3137 25.4628 30.3046 25.7008 30.3046C25.7008 30.4965 25.7008 30.6329 25.7008 30.7702C25.7008 32.5353 25.6962 34.3005 25.7038 36.0656C25.7069 36.795 26.2315 37.325 26.9274 37.3341C27.6453 37.3432 28.1889 36.814 28.1957 36.0717C28.2063 35.0382 28.1987 34.004 28.1987 32.9705C28.1987 32.1016 28.1987 31.2327 28.1987 30.3092V30.3077ZM35.5393 30.3061C35.769 30.3061 35.9669 30.313 36.1648 30.3046C36.8759 30.2751 37.3967 29.7693 37.4179 29.0945C37.4384 28.4477 36.9502 27.8487 36.2671 27.8283C34.945 27.7888 33.6199 27.7881 32.2977 27.8313C31.617 27.8533 31.1325 28.4652 31.1636 29.1104C31.1955 29.7731 31.7041 30.2705 32.3933 30.3039C32.6017 30.3137 32.811 30.3054 33.0407 30.3054C33.0407 30.5048 33.0407 30.6428 33.0407 30.7808C33.0407 32.508 33.0392 34.2353 33.0407 35.9625C33.0414 36.7799 33.541 37.3296 34.2779 37.3341C35.0337 37.3394 35.5363 36.7889 35.5378 35.9481C35.5401 34.2208 35.5378 32.4936 35.5378 30.7664C35.5378 30.6299 35.5378 30.4942 35.5378 30.3069L35.5393 30.3061Z" fill="white"/>
<path opacity="0.5" d="M14.5037 12.5C25.2482 12.5 35.9919 12.5 46.7364 12.5C46.7804 12.5212 46.8228 12.5523 46.8691 12.5614C48.5376 12.8867 49.7225 14.0354 49.9242 15.7247C50.0508 16.7817 49.9856 17.8637 49.9629 18.9335C49.9583 19.1595 49.7961 19.4097 49.6437 19.5977C49.3602 19.9488 48.9478 20.0011 48.5134 20.0011C36.6378 19.9965 24.7623 19.992 12.8867 20.0094C12.1195 20.0102 11.5692 19.7926 11.25 19.0836C11.25 17.9736 11.25 16.8636 11.25 15.7543C11.275 15.6724 11.3061 15.5913 11.3251 15.5086C11.6488 14.1158 12.4849 13.1786 13.826 12.6941C14.0466 12.6145 14.2771 12.5637 14.503 12.5H14.5037ZM21.2409 16.7362C21.2485 16.0454 20.6989 15.4775 20.0136 15.4677C19.3374 15.4578 18.7559 16.0257 18.7468 16.7043C18.7377 17.3974 19.2797 17.9486 19.9802 17.9584C20.6799 17.9675 21.2333 17.4315 21.2409 16.7369V16.7362ZM16.2769 17.9607C16.9615 17.9547 17.5126 17.3807 17.4959 16.6915C17.48 16.0227 16.9183 15.4662 16.2595 15.4669C15.5522 15.4677 14.9957 16.0371 15.0079 16.7468C15.02 17.4436 15.5673 17.9668 16.2762 17.9607H16.2769ZM23.7737 17.9607C24.4575 17.9547 25.0162 17.3769 24.9973 16.6952C24.9791 16.0273 24.4227 15.4753 23.7593 15.4677C23.0588 15.4593 22.4963 16.0333 22.5077 16.7453C22.5191 17.4421 23.0649 17.9668 23.7737 17.9607Z" fill="white"/>
<path d="M41.0508 32.329V30.3644C41.445 30.2833 41.7482 30.4168 41.9764 30.7125C42.2478 31.0635 42.266 31.4525 42.056 31.8399C41.8498 32.2206 41.5208 32.3813 41.0508 32.329Z" fill="white"/>
</g>
<defs>
<clipPath id="clip0_11873_2937">
<rect width="38.75" height="33.75" fill="white" transform="translate(11.25 12.5)"/>
</clipPath>
</defs>
</svg>
