<svg width="61" height="61" viewBox="0 0 61 61" fill="none" xmlns="http://www.w3.org/2000/svg">
<g filter="url(#filter0_d_11873_2985)">
<path d="M3.26073 35.9001C-0.00878006 32.6306 -0.00878507 27.3297 3.26072 24.0602L23.7943 3.52659C27.0638 0.257089 32.3647 0.257084 35.6342 3.52659L56.1678 24.0602C59.4373 27.3297 59.4373 32.6306 56.1678 35.9001L35.6342 56.4337C32.3647 59.7032 27.0638 59.7032 23.7943 56.4337L3.26073 35.9001Z" fill="#EBEEF9"/>
<path d="M3.96783 35.193C1.08885 32.314 1.08885 27.6463 3.96783 24.7673L24.5014 4.2337C27.3804 1.35472 32.0481 1.35472 34.9271 4.2337L55.4607 24.7673C58.3397 27.6463 58.3397 32.314 55.4607 35.193L34.9271 55.7266C32.0481 58.6055 27.3804 58.6055 24.5014 55.7266L3.96783 35.193Z" stroke="#3358C7" stroke-width="2"/>
</g>
<path d="M30.6998 23.6371C28.8201 23.6371 27.0174 24.3887 25.6882 25.7266C24.3591 27.0645 23.6123 28.8791 23.6123 30.7712C23.6123 32.6633 24.3591 34.4779 25.6882 35.8158C27.0174 37.1537 28.8201 37.9053 30.6998 37.9053C32.5795 37.9053 34.3823 37.1537 35.7114 35.8158C37.0406 34.4779 37.7873 32.6633 37.7873 30.7712C37.7873 28.8791 37.0406 27.0645 35.7114 25.7266C34.3823 24.3887 32.5795 23.6371 30.6998 23.6371ZM40.6223 30.7712C40.6223 33.4201 39.5769 35.9606 37.7161 37.8336C35.8553 39.7067 33.3314 40.759 30.6998 40.759C28.0682 40.759 25.5444 39.7067 23.6836 37.8336C21.8227 35.9606 20.7773 33.4201 20.7773 30.7712C20.7773 28.1223 21.8227 25.5819 23.6836 23.7088C25.5444 21.8357 28.0682 20.7834 30.6998 20.7834C33.3314 20.7834 35.8553 21.8357 37.7161 23.7088C39.5769 25.5819 40.6223 28.1223 40.6223 30.7712Z" fill="#3358C7"/>
<defs>
<filter id="filter0_d_11873_2985" x="0.808594" y="1.07446" width="59.8125" height="59.8113" filterUnits="userSpaceOnUse" color-interpolation-filters="sRGB">
<feFlood flood-opacity="0" result="BackgroundImageFix"/>
<feColorMatrix in="SourceAlpha" type="matrix" values="0 0 0 0 0 0 0 0 0 0 0 0 0 0 0 0 0 0 127 0" result="hardAlpha"/>
<feOffset dx="2" dy="2"/>
<feComposite in2="hardAlpha" operator="out"/>
<feColorMatrix type="matrix" values="0 0 0 0 0.752941 0 0 0 0 0.796078 0 0 0 0 0.933333 0 0 0 1 0"/>
<feBlend mode="normal" in2="BackgroundImageFix" result="effect1_dropShadow_11873_2985"/>
<feBlend mode="normal" in="SourceGraphic" in2="effect1_dropShadow_11873_2985" result="shape"/>
</filter>
</defs>
</svg>
