<svg width="28" height="28" viewBox="0 0 28 28" fill="none" xmlns="http://www.w3.org/2000/svg">
<rect width="28" height="28" rx="4" fill="#FB9193"/>
<path d="M14.0013 7.33269C12.914 7.33175 11.8431 7.59708 10.882 8.10551C9.92091 8.61394 9.09897 9.34999 8.48797 10.2494H10.668V11.916H5.66797V6.91602H7.33464V8.99935C8.10996 7.96343 9.11631 7.1227 10.2736 6.54403C11.431 5.96536 12.7074 5.66472 14.0013 5.66602C18.6038 5.66602 22.3346 9.39685 22.3346 13.9994H20.668C20.668 12.2312 19.9656 10.5356 18.7153 9.28531C17.4651 8.03507 15.7694 7.33269 14.0013 7.33269ZM7.33464 13.9994C7.33421 15.4252 7.79094 16.8136 8.63777 17.9608C9.4846 19.1079 10.6769 19.9533 12.0396 20.3729C13.4023 20.7924 14.8637 20.764 16.2091 20.2918C17.5545 19.8196 18.713 18.9285 19.5146 17.7494H17.3346V16.0827H22.3346V21.0827H20.668V18.9994C19.8926 20.0353 18.8863 20.876 17.729 21.4547C16.5716 22.0333 15.2952 22.334 14.0013 22.3327C9.3988 22.3327 5.66797 18.6019 5.66797 13.9994H7.33464Z" fill="white"/>
</svg>
