<svg width="28" height="28" viewBox="0 0 28 28" fill="none" xmlns="http://www.w3.org/2000/svg">
<g clip-path="url(#clip0_1632_4875)">
<path d="M24 0H4C1.79086 0 0 1.79086 0 4V24C0 26.2091 1.79086 28 4 28H24C26.2091 28 28 26.2091 28 24V4C28 1.79086 26.2091 0 24 0Z" fill="#F56C6C"/>
<path d="M14 6C13.4469 6 13 6.44687 13 7V7.6C10.7188 8.0625 9 10.0812 9 12.5V13.0875C9 14.5563 8.4594 15.975 7.4844 17.075L7.2531 17.3344C6.9906 17.6281 6.9281 18.05 7.0875 18.4094C7.2469 18.7688 7.6062 19 8 19H20C20.3938 19 20.75 18.7688 20.9125 18.4094C21.075 18.05 21.0094 17.6281 20.7469 17.3344L20.5156 17.075C19.5406 15.975 19 14.5594 19 13.0875V12.5C19 10.0812 17.2812 8.0625 15 7.6V7C15 6.44687 14.5531 6 14 6ZM15.4156 21.4156C15.7906 21.0406 16 20.5312 16 20H14H12C12 20.5312 12.2094 21.0406 12.5844 21.4156C12.9594 21.7906 13.4688 22 14 22C14.5312 22 15.0406 21.7906 15.4156 21.4156ZM4 12.25C4 12.6656 4.33437 13 4.75 13H7.25C7.6656 13 8 12.6656 8 12.25C8 11.8344 7.6656 11.5 7.25 11.5H4.75C4.33437 11.5 4 11.8344 4 12.25ZM20.75 11.5C20.3344 11.5 20 11.8344 20 12.25C20 12.6656 20.3344 13 20.75 13H23.25C23.6656 13 24 12.6656 24 12.25C24 11.8344 23.6656 11.5 23.25 11.5H20.75ZM22.6719 6.66562C22.4875 6.29375 22.0375 6.14375 21.6656 6.33125L19.6656 7.3312C19.2937 7.5156 19.1438 7.9656 19.3313 8.3375C19.5188 8.7094 19.9656 8.8594 20.3375 8.6719L22.3375 7.6719C22.7094 7.4875 22.8594 7.0375 22.6719 6.66562ZM5.6656 7.6719L7.6656 8.6719C8.0375 8.8563 8.4875 8.7063 8.6719 8.3375C8.8563 7.9688 8.7063 7.5156 8.3375 7.3312L6.3375 6.33125C5.9656 6.14375 5.5156 6.29375 5.3281 6.66562C5.1406 7.0375 5.2938 7.4875 5.6625 7.6719H5.6656Z" fill="white"/>
</g>
<defs>
<clipPath id="clip0_1632_4875">
<rect width="28" height="28" fill="white"/>
</clipPath>
</defs>
</svg>
