<svg width="28" height="28" viewBox="0 0 28 28" fill="none" xmlns="http://www.w3.org/2000/svg">
<rect width="28" height="28" rx="4" fill="#53C753"/>
<g clip-path="url(#clip0_22563_43989)">
<path opacity="0.5" d="M22.3334 8.83892V20.4978C22.3334 21.5125 21.5046 22.3352 20.4822 22.3352H8.82245C8.01366 22.3352 7.32629 21.8204 7.07422 21.1029C7.17527 21.1459 7.28261 21.1815 7.39662 21.2098C7.4366 21.2197 7.47472 21.2359 7.51396 21.2495H19.8474C19.94 21.2219 20.0332 21.1966 20.125 21.1672C20.8727 20.9265 21.3588 20.2623 21.3602 19.4602C21.3636 17.7992 21.3614 16.1378 21.3614 14.4767C21.3614 12.2539 21.3628 10.0312 21.3606 7.80799C21.3606 7.58093 21.3232 7.36563 21.2536 7.16797C21.891 7.45822 22.3334 8.09713 22.3334 8.83892Z" fill="white"/>
<path d="M19.8474 21.2475H7.51392C7.47469 21.2343 7.43656 21.2177 7.39658 21.2078C6.75215 21.0469 6.315 20.6578 6.08921 20.0373C6.05441 19.9417 6.02961 19.8425 6 19.7448C6 15.664 6 11.5837 6 7.50289C6.01073 7.48195 6.02628 7.46211 6.03146 7.44006C6.23023 6.55352 6.91131 6.00131 7.82152 6.00094C11.7285 5.99947 15.6354 5.99947 19.5424 6.00278C19.7067 6.00278 19.8759 6.02005 20.0343 6.06083C20.8394 6.26878 21.3598 6.95472 21.3609 7.80637C21.3632 10.0292 21.3617 12.2523 21.3617 14.4751C21.3617 16.1362 21.3639 17.7972 21.3606 19.4582C21.3591 20.2603 20.8731 20.9249 20.1254 21.1652C20.0336 21.1946 19.9403 21.2203 19.8478 21.2475H19.8474ZM15.4615 9.51884C14.4831 9.51884 13.5048 9.51737 12.5265 9.51957C12.1675 9.52068 11.9065 9.77492 11.9091 10.11C11.9117 10.4355 12.1719 10.6901 12.5187 10.6905C14.4754 10.6927 16.4324 10.6934 18.389 10.6872C18.5052 10.6872 18.6337 10.6446 18.7343 10.585C18.9568 10.4531 19.046 10.186 18.9738 9.94686C18.895 9.68564 18.6803 9.52068 18.3968 9.51994C17.4185 9.51737 16.4401 9.51884 15.4618 9.51884H15.4615ZM15.4618 13.0375C14.4835 13.0375 13.5052 13.036 12.5269 13.0382C12.1678 13.0389 11.9065 13.2932 11.9091 13.6283C11.9113 13.9538 12.1715 14.2088 12.5184 14.2091C14.475 14.2113 16.432 14.2121 18.3886 14.2058C18.5049 14.2058 18.6333 14.1636 18.734 14.104C18.9564 13.9725 19.046 13.705 18.9738 13.4662C18.8954 13.205 18.6803 13.0397 18.3971 13.0389C17.4188 13.0364 16.4405 13.0378 15.4622 13.0378L15.4618 13.0375ZM15.4655 16.5561C14.4994 16.5561 13.5333 16.5554 12.5672 16.5561C12.1752 16.5561 11.9084 16.7957 11.9087 17.1428C11.9091 17.4882 12.1782 17.7281 12.5698 17.7285C14.4898 17.7292 16.4094 17.7289 18.3294 17.7285C18.3968 17.7285 18.466 17.7285 18.5311 17.7145C18.8287 17.6495 19.0286 17.3721 18.9949 17.0775C18.9616 16.7832 18.7136 16.559 18.4008 16.5579C17.4225 16.5546 16.4442 16.5568 15.4659 16.5565L15.4655 16.5561ZM9.55346 8.93283C9.35062 8.93283 9.1474 8.92805 8.94456 8.93393C8.61957 8.94348 8.37193 9.1834 8.36564 9.50524C8.35824 9.90829 8.35713 10.3113 8.36638 10.7144C8.37342 11.0245 8.62216 11.2692 8.93605 11.2758C9.3421 11.2842 9.74816 11.2842 10.1542 11.2758C10.4685 11.2692 10.7165 11.0256 10.7235 10.7144C10.7328 10.3117 10.732 9.90829 10.7243 9.50524C10.718 9.18487 10.4681 8.94385 10.1446 8.9343C9.94804 8.92842 9.75075 8.9332 9.55383 8.9332L9.55346 8.93283ZM9.54606 12.4511C9.35543 12.4511 9.16443 12.4485 8.9738 12.4515C8.61549 12.4573 8.3686 12.6965 8.36453 13.0492C8.35972 13.4339 8.35935 13.8186 8.36453 14.2032C8.36897 14.5438 8.61772 14.7904 8.96196 14.7951C9.34951 14.8003 9.73706 14.8003 10.1246 14.7951C10.4711 14.7907 10.7194 14.5479 10.7246 14.2066C10.7305 13.8156 10.7309 13.4247 10.7246 13.0342C10.7191 12.7031 10.4703 12.4603 10.1368 12.4518C9.9399 12.4467 9.74298 12.4511 9.54606 12.4507V12.4511ZM9.54125 18.3149C9.73817 18.3149 9.93509 18.3185 10.132 18.3141C10.4677 18.3061 10.7183 18.0661 10.7246 17.7366C10.732 17.3398 10.732 16.9426 10.7246 16.5458C10.7187 16.2243 10.4711 15.9778 10.1483 15.9716C9.74853 15.9642 9.3484 15.9646 8.94863 15.9712C8.61475 15.9767 8.37008 16.2232 8.36527 16.5565C8.35935 16.9474 8.35935 17.3383 8.36527 17.7289C8.37045 18.0599 8.61809 18.3042 8.95085 18.3138C9.1474 18.3193 9.34469 18.3149 9.54162 18.3149H9.54125Z" fill="white"/>
</g>
<defs>
<clipPath id="clip0_22563_43989">
<rect width="16.3333" height="16.3333" fill="white" transform="translate(6 6)"/>
</clipPath>
</defs>
</svg>
