<svg width="61" height="61" viewBox="0 0 61 61" fill="none" xmlns="http://www.w3.org/2000/svg">
    <g filter="url(#filter0_d_11079_3429)">
        <path d="M3.26268 35.9038C-0.00682696 32.6343 -0.00683195 27.3333 3.26267 24.0638L23.7962 3.53026C27.0658 0.260751 32.3667 0.260746 35.6362 3.53025L56.1698 24.0638C59.4393 27.3333 59.4393 32.6343 56.1698 35.9038L35.6362 56.4373C32.3667 59.7068 27.0658 59.7068 23.7963 56.4373L3.26268 35.9038Z" fill="#EFFBEF"/>
        <path d="M3.96978 24.7709L24.5034 4.23736C27.3823 1.35838 32.0501 1.35838 34.9291 4.23736L55.4626 24.7709C58.3416 27.6499 58.3416 32.3177 55.4627 35.1967L34.9291 55.7302C32.0501 58.6092 27.3823 58.6092 24.5034 55.7302L3.96979 35.1967C1.0908 32.3177 1.0908 27.6499 3.96978 24.7709Z" stroke="#5BDB5B" stroke-width="2"/>
    </g>
    <path d="M40.165 30.9707C41.0896 30.9707 41.8403 30.2199 41.8403 29.2954C41.8403 28.3708 41.0896 27.6201 40.165 27.6201L32.3728 27.6238L32.3691 19.8316C32.3691 18.907 31.6184 18.1562 30.6938 18.1562C29.7692 18.1562 29.0185 18.907 29.0185 19.8316L29.0222 27.6238L21.23 27.6275C20.3054 27.6275 19.5547 28.3782 19.5547 29.3028C19.5547 30.2273 20.3054 30.9781 21.23 30.9781L29.0222 30.9744L29.0259 38.7666C29.0259 39.6911 29.7766 40.4419 30.7012 40.4419C31.6258 40.4419 32.3765 39.6911 32.3765 38.7666L32.3728 30.9744L40.165 30.9707Z" fill="#5BDB5B"/>
    <defs>
        <filter id="filter0_d_11079_3429" x="0.810547" y="1.07812" width="59.8105" height="59.8125" filterUnits="userSpaceOnUse" color-interpolation-filters="sRGB">
            <feFlood flood-opacity="0" result="BackgroundImageFix"/>
            <feColorMatrix in="SourceAlpha" type="matrix" values="0 0 0 0 0 0 0 0 0 0 0 0 0 0 0 0 0 0 127 0" result="hardAlpha"/>
            <feOffset dx="2" dy="2"/>
            <feComposite in2="hardAlpha" operator="out"/>
            <feColorMatrix type="matrix" values="0 0 0 0 0.8 0 0 0 0 0.956863 0 0 0 0 0.8 0 0 0 1 0"/>
            <feBlend mode="normal" in2="BackgroundImageFix" result="effect1_dropShadow_11079_3429"/>
            <feBlend mode="normal" in="SourceGraphic" in2="effect1_dropShadow_11079_3429" result="shape"/>
        </filter>
    </defs>
</svg>
