<svg width="60" height="60" viewBox="0 0 60 60" fill="none" xmlns="http://www.w3.org/2000/svg">
<rect width="60" height="60" rx="12" fill="#E91E63"/>
<g clip-path="url(#clip0_11873_2942)">
<path opacity="0.5" d="M24.8031 33.6416C28.1112 33.6416 31.4186 33.6416 34.7268 33.6416C35.9776 33.6416 36.4524 33.1743 36.4524 31.9451C36.4524 30.1846 36.454 28.4242 36.4524 26.6638C36.4508 25.6231 35.9281 25.1074 34.8643 25.1074C28.1552 25.1051 21.4469 25.1059 14.7379 25.1074C13.6612 25.1074 13.1369 25.6067 13.1321 26.6466C13.1249 28.4717 13.1241 30.2968 13.1321 32.1219C13.1369 33.1338 13.6708 33.6393 14.7195 33.6401C18.0804 33.6432 21.4413 33.6409 24.8023 33.6416H24.8031Z" fill="white"/>
<path d="M24.8188 44.9982C28.1534 44.9982 31.4879 44.9982 34.8217 44.9982C35.9527 44.9982 36.4506 44.5145 36.4522 43.4138C36.4538 41.6666 36.453 39.9187 36.4522 38.1715C36.4522 36.9267 35.9814 36.4718 34.689 36.4718C29.6145 36.471 24.5399 36.4718 19.4653 36.4718C17.9243 36.4718 16.3834 36.4695 14.8424 36.4726C13.6091 36.4749 13.1319 36.9431 13.1303 38.1465C13.1287 39.8937 13.1271 41.6417 13.1303 43.3889C13.1327 44.5215 13.6227 44.999 14.7752 44.999C18.1226 44.9998 21.4707 44.999 24.818 44.999L24.8188 44.9982Z" fill="white"/>
<path d="M24.7877 13.75C21.4531 13.75 18.1186 13.75 14.7848 13.75C13.6251 13.75 13.1327 14.2228 13.1303 15.35C13.1263 17.1236 13.1263 18.8965 13.1303 20.6702C13.1327 21.7748 13.6267 22.2741 14.752 22.2749C21.4475 22.2795 28.143 22.2795 34.8385 22.2749C35.9583 22.2741 36.4514 21.767 36.4522 20.664C36.4538 18.9035 36.453 17.1431 36.4522 15.3827C36.4498 14.222 35.9702 13.75 34.7905 13.75C31.456 13.75 28.1214 13.75 24.7877 13.75Z" fill="white"/>
<path opacity="0.5" d="M39.3792 29.3996C39.3792 30.3063 39.3744 31.2122 39.38 32.1189C39.3864 33.1144 39.9115 33.6379 40.9218 33.641C42.8088 33.6472 44.6959 33.6472 46.5822 33.641C47.5717 33.6371 48.108 33.1175 48.1136 32.147C48.1232 30.2954 48.124 28.4438 48.1136 26.5922C48.108 25.6256 47.5677 25.1122 46.5718 25.1091C44.6847 25.1037 42.7977 25.1029 40.9114 25.1091C39.9219 25.1122 39.3888 25.6357 39.3816 26.6024C39.3744 27.5348 39.38 28.4672 39.38 29.3988L39.3792 29.3996Z" fill="white"/>
<path d="M39.3792 40.7571C39.3792 41.6762 39.3728 42.5954 39.3808 43.5146C39.3888 44.4882 39.9139 44.9953 40.913 44.9969C42.8001 45.0008 44.6863 45.0008 46.5734 44.9969C47.5773 44.9953 48.108 44.496 48.1136 43.5208C48.124 41.6692 48.1232 39.8176 48.1136 37.9669C48.1088 37.0056 47.6069 36.49 46.6198 36.4791C44.7063 36.4588 42.7929 36.4588 40.8802 36.4791C39.8779 36.4892 39.3856 37.0126 39.38 37.9996C39.3744 38.9187 39.3792 39.8379 39.3792 40.7571Z" fill="white"/>
<path d="M42.3894 13.75H45.1109C45.4186 13.75 45.668 13.9931 45.668 14.2929V21.7358C45.668 22.0357 45.4186 22.2787 45.1109 22.2787H42.3894C42.0817 22.2787 41.8323 22.0357 41.8323 21.7358V14.2929C41.8323 13.9931 42.0817 13.75 42.3894 13.75Z" fill="white"/>
<path d="M39.375 19.3405V16.6882C39.375 16.3883 39.6244 16.1453 39.9321 16.1453H47.5691C47.8768 16.1453 48.1262 16.3883 48.1262 16.6882V19.3405C48.1262 19.6404 47.8768 19.8835 47.5691 19.8835H39.9321C39.6244 19.8835 39.375 19.6404 39.375 19.3405Z" fill="white"/>
</g>
<defs>
<clipPath id="clip0_11873_2942">
<rect width="35" height="31.25" fill="white" transform="matrix(-1 0 0 1 48.125 13.75)"/>
</clipPath>
</defs>
</svg>
