<svg width="89" height="82" viewBox="0 0 89 82" fill="none" xmlns="http://www.w3.org/2000/svg">
<circle cx="38.5" cy="39.5" r="38.5" fill="#4B528E"/>
<rect x="3" width="75.8476" height="75.6755" rx="37.8377" fill="#E1E3F4"/>
<rect x="9.41797" y="6.40527" width="63.0123" height="62.8647" rx="31.4323" fill="white"/>
<rect x="9.41797" y="6.40527" width="63.0123" height="62.8647" rx="31.4323" stroke="#616bc9" stroke-width="2"/>
<g clip-path="url(#clip0_12105_8292)">
<path d="M36.2845 25.7833C35.4673 25.2959 34.4403 25.2798 33.6066 25.7351C32.7729 26.1904 32.2539 27.0474 32.2539 27.9793V46.8331C32.2539 47.7651 32.7729 48.6221 33.6066 49.0774C34.4403 49.5327 35.4673 49.5112 36.2845 49.0292L52.1858 39.6023C52.9754 39.1363 53.4557 38.3061 53.4557 37.4062C53.4557 36.5064 52.9754 35.6815 52.1858 35.2102L36.2845 25.7833Z" fill="#616bc9"/>
</g>
<path d="M69.1815 81C79.5723 81 87.9996 72.5951 87.9996 62.2223C87.9996 51.8495 79.5723 43.4446 69.1815 43.4446C58.7906 43.4446 50.3633 51.8495 50.3633 62.2223C50.3633 72.5951 58.7906 81 69.1815 81Z" fill="#038FDE" stroke="white" stroke-width="2"/>
<g clip-path="url(#clip1_12105_8292)">
<g clip-path="url(#clip2_12105_8292)">
<path d="M62 54.0002C60.8969 54.0002 60 54.8971 60 56.0002V65.0002C60 66.1034 60.8969 67.0002 62 67.0002H67.5L67.1656 68.0002H65C64.4469 68.0002 64 68.4471 64 69.0002C64 69.5534 64.4469 70.0002 65 70.0002H73C73.5531 70.0002 74 69.5534 74 69.0002C74 68.4471 73.5531 68.0002 73 68.0002H70.8344L70.5 67.0002H76C77.1031 67.0002 78 66.1034 78 65.0002V56.0002C78 54.8971 77.1031 54.0002 76 54.0002H62ZM76 56.0002V65.0002H62V56.0002H76Z" fill="white"/>
</g>
</g>
<defs>
<clipPath id="clip0_12105_8292">
<rect width="24" height="24" fill="white" transform="translate(30.418 25.4053)"/>
</clipPath>
<clipPath id="clip1_12105_8292">
<rect width="18" height="16" fill="white" transform="translate(60 54.0002)"/>
</clipPath>
<clipPath id="clip2_12105_8292">
<rect width="18" height="16" fill="white" transform="translate(60 54.0002)"/>
</clipPath>
</defs>
</svg>
