<svg width="60" height="60" viewBox="0 0 60 60" fill="none" xmlns="http://www.w3.org/2000/svg">
<rect width="60" height="60" rx="12" fill="#039DF4"/>
<g clip-path="url(#clip0_11873_2919)">
<path d="M21.1676 37.4922C19.0195 37.4922 16.8714 37.5128 14.7233 37.4863C12.7873 37.4628 11.6225 36.0749 11.9216 34.207C12.5055 30.5536 15.3551 27.8315 19.1304 27.5727C20.9645 27.447 22.8713 27.4595 24.6634 27.8094C27.8481 28.4306 30.2233 31.2556 30.6033 34.421C30.8049 36.1043 29.5832 37.4621 27.7858 37.4856C25.58 37.5135 23.3734 37.4922 21.1676 37.4922Z" fill="white"/>
<path d="M15.625 21.2641C15.625 18.5127 17.8482 16.2665 20.5883 16.2501C23.3497 16.2344 25.6591 18.5518 25.6246 21.3041C25.5901 24.0571 23.3567 26.2531 20.5938 26.25C17.8341 26.2469 15.6258 24.0305 15.625 21.2634V21.2641Z" fill="white"/>
<path d="M40.4981 44.1726C39.7991 44.1726 38.2045 44.1726 37.54 44.1726C35.9884 44.1719 35.0681 43.243 35.0674 41.6776C35.0674 38.0969 35.0674 34.5163 35.0674 30.9363V30.5307H21.7729C21.1401 30.5307 20.6264 30.0125 20.625 29.3716C20.6236 28.7293 21.138 28.2082 21.7729 28.2082H35.0674V27.7549C35.0674 24.1635 35.066 20.5714 35.0681 16.9801C35.0688 15.538 36.0229 14.5806 37.4533 14.577C37.8867 14.5756 38.32 14.577 38.7541 14.577C39.019 14.577 40.2134 14.577 40.5002 14.577L40.4981 16.8789H37.3469V28.2161H40.4988V30.5371H37.3455V41.8971H40.4988V44.174L40.4981 44.1726Z" fill="white"/>
<path opacity="0.5" d="M47.5485 11.25H42.3278C41.3183 11.25 40.5 12.0779 40.5 13.0991V18.3807C40.5 19.4019 41.3183 20.2298 42.3278 20.2298H47.5485C48.5579 20.2298 49.3763 19.4019 49.3763 18.3807V13.0991C49.3763 12.0779 48.5579 11.25 47.5485 11.25Z" fill="white"/>
<path opacity="0.5" d="M47.5485 24.8853H42.3278C41.3183 24.8853 40.5 25.7131 40.5 26.7344V32.0159C40.5 33.0372 41.3183 33.8651 42.3278 33.8651H47.5485C48.5579 33.8651 49.3763 33.0372 49.3763 32.0159V26.7344C49.3763 25.7131 48.5579 24.8853 47.5485 24.8853Z" fill="white"/>
<path opacity="0.5" d="M47.5485 38.5205H42.3278C41.3183 38.5205 40.5 39.3484 40.5 40.3696V45.6512C40.5 46.6724 41.3183 47.5003 42.3278 47.5003H47.5485C48.5579 47.5003 49.3763 46.6724 49.3763 45.6512V40.3696C49.3763 39.3484 48.5579 38.5205 47.5485 38.5205Z" fill="white"/>
</g>
<defs>
<clipPath id="clip0_11873_2919">
<rect width="37.5" height="36.25" fill="white" transform="translate(11.875 11.25)"/>
</clipPath>
</defs>
</svg>
