<svg width="28" height="28" viewBox="0 0 28 28" fill="none" xmlns="http://www.w3.org/2000/svg">
<rect width="28" height="28" rx="4" fill="#2E5299"/>
<path d="M12.4281 17.4156L16.4531 14.7469C16.5844 14.6594 16.65 14.5354 16.65 14.375C16.65 14.2146 16.5844 14.0906 16.4531 14.0031L12.4281 11.3344C12.2823 11.2323 12.1327 11.2212 11.9793 11.3011C11.8258 11.381 11.7494 11.5091 11.75 11.6853V17.0665C11.75 17.2415 11.8267 17.3693 11.9801 17.4498C12.1335 17.5303 12.2829 17.5183 12.4281 17.4156ZM11.75 5.625C11.5021 5.625 11.2944 5.541 11.127 5.373C10.9596 5.205 10.8756 4.99733 10.875 4.75C10.8744 4.50267 10.9584 4.295 11.127 4.127C11.2956 3.959 11.5032 3.875 11.75 3.875H15.25C15.4979 3.875 15.7059 3.959 15.8739 4.127C16.0419 4.295 16.1256 4.50267 16.125 4.75C16.1244 4.99733 16.0404 5.20529 15.873 5.37388C15.7056 5.54246 15.4979 5.62617 15.25 5.625H11.75ZM13.5 22.25C12.4208 22.25 11.4035 22.0423 10.448 21.627C9.4925 21.2117 8.65775 20.6464 7.94375 19.9313C7.22975 19.2161 6.66479 18.381 6.24888 17.4261C5.83296 16.4712 5.625 15.4542 5.625 14.375C5.625 13.2958 5.83296 12.2785 6.24888 11.323C6.66479 10.3675 7.22975 9.53275 7.94375 8.81875C8.65775 8.10475 9.49279 7.53979 10.4489 7.12388C11.405 6.70796 12.422 6.5 13.5 6.5C14.4042 6.5 15.2719 6.64583 16.1031 6.9375C16.9344 7.22917 17.7146 7.65208 18.4437 8.20625L19.0563 7.59375C19.2167 7.43333 19.4208 7.35313 19.6687 7.35313C19.9167 7.35313 20.1208 7.43333 20.2812 7.59375C20.4417 7.75417 20.5219 7.95833 20.5219 8.20625C20.5219 8.45417 20.4417 8.65833 20.2812 8.81875L19.6687 9.43125C20.2229 10.1604 20.6458 10.9406 20.9375 11.7719C21.2292 12.6031 21.375 13.4708 21.375 14.375C21.375 15.4542 21.167 16.4715 20.7511 17.427C20.3352 18.3825 19.7703 19.2173 19.0563 19.9313C18.3423 20.6453 17.5072 21.2105 16.5511 21.627C15.595 22.0435 14.578 22.2512 13.5 22.25ZM13.5 20.5C15.1917 20.5 16.6354 19.9021 17.8313 18.7063C19.0271 17.5104 19.625 16.0667 19.625 14.375C19.625 12.6833 19.0271 11.2396 17.8313 10.0438C16.6354 8.84792 15.1917 8.25 13.5 8.25C11.8083 8.25 10.3646 8.84792 9.16875 10.0438C7.97292 11.2396 7.375 12.6833 7.375 14.375C7.375 16.0667 7.97292 17.5104 9.16875 18.7063C10.3646 19.9021 11.8083 20.5 13.5 20.5Z" fill="white"/>
</svg>
